<svg xmlns="http://www.w3.org/2000/svg" width="284" height="344" viewBox="0 0 284 344">
  <defs>
    <linearGradient id="group-a" x1="30.366%" x2="75.618%" y1="73.763%" y2="34.415%">
      <stop offset="0%" stop-color="#FFF"/>
      <stop offset="100%" stop-color="#D1B3B3"/>
    </linearGradient>
  </defs>
  <g fill="none" fill-rule="evenodd">
    <path fill="url(#group-a)" d="M77.7862665,221.5 C20.7150668,198.807464 -4.95159983,161.640797 0.786266511,110 C5.11959984,71 36.4529332,42.6666667 94.7862665,25 L141.286267,40.5 C69.2862665,61.5 32.4529332,92.1666667 30.7862665,132.5 C28.613719,185.075651 54.113719,218.075651 107.286267,231.5 L77.7862665,221.5 Z"/>
    <polygon fill="#FFF" points="110 93.5 141.5 75 141.5 294 110.185 317.2" transform="matrix(-1 0 0 1 251.5 0)"/>
    <polygon fill="#FFF" points="35.375 216 114.5 326.418 91 343.418 3 224.418" transform="matrix(-1 0 0 1 117.5 0)"/>
    <polygon fill="#BE7A7A" points="26 184 143 343 78.5 328 26 256" transform="matrix(-1 0 0 1 169 0)"/>
    <path fill="#BE7A7A" d="M283.351321,100.2517 L283.370696,100.255405 L283.370696,41 L141,16 L141,73.0303994 L229.710007,89.9940761 L229.710007,305.255405 L283.185348,317.200012 L283.351321,100.2517 Z" transform="matrix(-1 0 0 1 424.37 0)"/>
    <path fill="#BE7A7A" d="M30,41 C106.333333,61.191497 143.5,95.3676767 141.5,143.528539 C139.137208,200.425597 101.970541,232.076946 30,238.482587 L30,186.946514 L30,99.9896432 L30,41 Z M30,99.5789227 L30,187.478155 C67.1921986,181.826052 85.7882979,167.833333 85.7882979,145.5 C85.7882979,123.166667 67.1921986,107.859641 30,99.5789227 Z" transform="matrix(-1 0 0 1 171.577 0)"/>
    <polygon fill="#D1B3B3" points="95 25.5 237.5 0 283.5 16 140.5 41"/>
  </g>
</svg>
