<svg xmlns="http://www.w3.org/2000/svg" width="296" height="362" viewBox="0 0 296 362">
  <defs>
    <linearGradient id="group-a" x1="13.911%" x2="83.019%" y1="40.813%" y2="66.485%">
      <stop offset="0%" stop-color="#854545"/>
      <stop offset="100%" stop-color="#B15B5B"/>
    </linearGradient>
    <linearGradient id="group-b" x1="64.9%" y1="61.447%" y2="100%">
      <stop offset="0%" stop-color="#854545"/>
      <stop offset="100%" stop-color="#B15B5B"/>
    </linearGradient>
    <linearGradient id="group-c" x1="58.699%" x2="74.045%" y1="38.286%" y2="9.062%">
      <stop offset="0%" stop-color="#B15B5B"/>
      <stop offset="100%" stop-color="#8A4747"/>
    </linearGradient>
    <linearGradient id="group-d" x1="5.835%" x2="50%" y1="74.883%" y2="20.736%">
      <stop offset="0%" stop-color="#995858"/>
      <stop offset="100%" stop-color="#D1B3B3"/>
    </linearGradient>
  </defs>
  <g fill="none" fill-rule="evenodd">
    <polygon fill="url(#group-a)" points="119 95 178.817 111.5 178.817 239.5 119 223"/>
    <polygon fill="url(#group-b)" points="119 223 178.817 239.5 178.817 334.5 119 318"/>
    <polygon fill="#BE7A7A" points="178 111.811 237.817 93 237.817 315.531 178 334.341"/>
    <polygon fill="url(#group-c)" points="59.5 236 118.75 252 59.25 362 0 346"/>
    <path fill="url(#group-d)" d="M237,0 C237,0 256.333333,5.83333333 295,17.5 L114,66.5 C98.9470878,72.2621026 86.1137545,79.7621026 75.5,89 C64.4206318,98.6431538 59,117.849987 59,131.5 C59,164 59,169 59,203.5 C59,216.5 66,234 68,236 C75.7901813,243.790181 92.1235146,249.956848 117,254.5 C84.1347799,247.618487 52.3014465,238.45182 21.5,227 C9.20216979,222.42773 1,210.401159 1,199 C1,143.5 1,153.5 1,104 C1,84.6928893 7.07773845,71.978725 25.5,62 C33.5,57.6666667 47.1666667,52.5 66.5,46.5 C180.166667,15.5 237,0 237,0 Z"/>
    <path fill="#BE7A7A" d="M179.182034,237.70441 L195.34219,234 L138.84219,342.5 L59.3421898,362 L118.224096,252.937154 C99.8763978,249.879009 83.0367453,245.714843 72.8421898,240.5 C66,237 59,223 59,207.981664 C59,176.830368 59,143.459066 59,129.5 C59,121.5 63.5188907,103.785352 67.3421898,98 C76.0945721,84.756042 92.8421898,72.5 116.84219,65.5 C148.767406,56.1884787 208.21402,40.021812 295.182034,17 L295.182034,77.5 C237.728909,94.1666667 184.782294,110.333333 136.34219,126 C121.291468,130.867757 119.84219,144.5 119.495017,155.5 C119.147845,166.5 119.34219,176 119.495017,187.737832 C119.574857,193.869921 122.34219,207.481664 130.34219,209.5 C138.966129,211.675751 157.84219,211 179.182034,207.5 C179.182034,217.470388 179.182034,228.644686 179.182034,239.005507 Z"/>
  </g>
</svg>
